<svg width="24" height="24" viewBox="0 0 24 24" fill="none" xmlns="http://www.w3.org/2000/svg">
<path d="M6.5 10.5V9.5C6.5 6.46243 8.96243 4 12 4V4C15.0376 4 17.5 6.46243 17.5 9.5V10.5" stroke="#181818" stroke-width="1.5" stroke-linecap="round" stroke-linejoin="round"/>
<path d="M17.5 10.5C17.5252 12.6199 18.3707 14.6477 19.859 16.1576C19.9986 16.3002 20.0391 16.5126 19.9618 16.6965C19.8844 16.8805 19.7042 17.0001 19.5046 16.9999L4.49541 17C4.29584 17.0001 4.11566 16.8805 4.03827 16.6966C3.96088 16.5126 4.00139 16.3002 4.14103 16.1576C5.62928 14.6477 6.47476 12.6199 6.5 10.5" stroke="#181818" stroke-width="1.5" stroke-linecap="round" stroke-linejoin="round"/>
<path d="M14 20H10" stroke="#181818" stroke-width="1.5" stroke-linecap="round" stroke-linejoin="round"/>
</svg>
