<svg width="24" height="24" viewBox="0 0 24 24" fill="none" xmlns="http://www.w3.org/2000/svg">
<path d="M11 10L14 13" stroke="#181818" stroke-width="1.5" stroke-linecap="round" stroke-linejoin="round"/>
<path d="M6.49999 21C7.19222 21 7.86891 20.7947 8.44449 20.4101C9.02006 20.0256 9.46866 19.4789 9.73357 18.8394C9.99847 18.1999 10.0678 17.4961 9.93274 16.8172C9.79769 16.1383 9.46435 15.5146 8.97486 15.0251C8.48538 14.5356 7.86174 14.2023 7.18281 14.0673C6.50387 13.9322 5.80014 14.0015 5.1606 14.2664C4.52106 14.5313 3.97443 14.9799 3.58985 15.5555C3.20526 16.1311 2.99999 16.8078 2.99999 17.5C3.00017 18.1656 2.74704 18.8063 2.29199 19.292C2.15178 19.4319 2.05625 19.6102 2.01751 19.8044C1.97878 19.9986 1.99859 20.2 2.07442 20.3829C2.15026 20.5659 2.2787 20.7222 2.44348 20.832C2.60826 20.9419 2.80195 21.0004 2.99999 21H6.49999Z" stroke="#181818" stroke-width="1.5" stroke-linecap="round" stroke-linejoin="round"/>
<path d="M9.96901 17.031L21.378 5.62401C21.7761 5.22592 21.9997 4.68599 21.9997 4.12301C21.9997 3.56003 21.7761 3.0201 21.378 2.62201C20.9799 2.22392 20.44 2.00027 19.877 2.00027C19.314 2.00027 18.7741 2.22392 18.376 2.62201L6.96701 14.031" stroke="#181818" stroke-width="1.5" stroke-linecap="round" stroke-linejoin="round"/>
</svg>
