<svg width="24" height="24" viewBox="0 0 24 24" fill="none" xmlns="http://www.w3.org/2000/svg">
<path fill-rule="evenodd" clip-rule="evenodd" d="M2.99625 11.7499C2.99625 12.9931 4.00403 14.0008 5.24718 14.0008V14.0008C5.84432 14.0016 6.41715 13.7643 6.83885 13.3416C7.20734 12.9882 7.7889 12.9882 8.1574 13.3416C8.57909 13.7643 9.15192 14.0016 9.74906 14.0008V14.0008C10.3462 14.0016 10.919 13.7643 11.3407 13.3416C11.7092 12.9882 12.2908 12.9882 12.6593 13.3416C13.081 13.7643 13.6538 14.0016 14.2509 14.0008V14.0008C14.8481 14.0016 15.4209 13.7643 15.8426 13.3416C16.2111 12.9882 16.7927 12.9882 17.1611 13.3416C17.5828 13.7643 18.1557 14.0016 18.7528 14.0008V14.0008C19.996 14.0008 21.0037 12.9931 21.0037 11.7499V11.7499C21.0037 10.2305 19.772 8.99875 18.2526 8.99875H5.74739C4.22798 8.99875 2.99625 10.2305 2.99625 11.7499Z" stroke="#181818" stroke-width="1.2" stroke-linecap="round" stroke-linejoin="round"/>
<path d="M22.0042 21.0037H1.99583" stroke="#181818" stroke-width="1.5" stroke-linecap="round" stroke-linejoin="round"/>
<path d="M6.99798 8.99897V6.99804" stroke="#181818" stroke-width="1.5" stroke-linecap="round" stroke-linejoin="round"/>
<path d="M17.0021 8.99897V6.99804" stroke="#181818" stroke-width="1.5" stroke-linecap="round" stroke-linejoin="round"/>
<path d="M12.0001 8.99897V6.99804" stroke="#181818" stroke-width="1.5" stroke-linecap="round" stroke-linejoin="round"/>
<path d="M6.99792 3.99667V2.99625" stroke="#181818" stroke-width="1.5" stroke-linecap="round" stroke-linejoin="round"/>
<path d="M12 3.99667V2.99625" stroke="#181818" stroke-width="1.5" stroke-linecap="round" stroke-linejoin="round"/>
<path d="M17.0021 3.99667V2.99625" stroke="#181818" stroke-width="1.5" stroke-linecap="round" stroke-linejoin="round"/>
<path d="M20.0033 17.5023H3.99666" stroke="#181818" stroke-width="1.5" stroke-linecap="round" stroke-linejoin="round"/>
<path d="M20.0033 21.0038V13.9294" stroke="#181818" stroke-width="1.5" stroke-linecap="round" stroke-linejoin="round"/>
<path d="M3.99667 21.0038V13.9294" stroke="#181818" stroke-width="1.5" stroke-linecap="round" stroke-linejoin="round"/>
</svg>
