<svg width="24" height="24" viewBox="0 0 24 24" fill="none" xmlns="http://www.w3.org/2000/svg">
<path fill-rule="evenodd" clip-rule="evenodd" d="M7.99849 13.0004C7.71012 13.0004 7.43577 13.1249 7.2458 13.3418C7.05584 13.5588 6.96875 13.8472 7.00686 14.1331L7.19813 15.5676C7.23126 15.8161 7.44324 16.0017 7.69394 16.0017H16.2584C16.5029 16.0017 16.7116 15.8249 16.7518 15.5837L16.9882 14.1653C17.0366 13.8752 16.9548 13.5786 16.7648 13.3542C16.5747 13.1298 16.2955 13.0004 16.0014 13.0004H7.99849Z" stroke="#181818" stroke-width="1.5" stroke-linecap="round" stroke-linejoin="round"/>
<path d="M13.5562 13.0004L14.3501 9.42745C14.5642 8.46415 14.1688 7.46775 13.3524 6.91343C12.536 6.3591 11.464 6.3591 10.6476 6.91343C9.83121 7.46775 9.43576 8.46415 9.64983 9.42745L10.4438 13.0004" stroke="#181818" stroke-width="1.5" stroke-linecap="round" stroke-linejoin="round"/>
<path d="M20.5856 9.35189C20.8587 10.2082 20.9997 11.1012 21.0037 12C21.0037 16.9726 16.9726 21.0037 12 21.0037C7.02736 21.0037 2.99625 16.9726 2.99625 12C2.99625 7.02736 7.02736 2.99625 12 2.99625C12.8988 3.00031 13.7918 3.14132 14.6481 3.41442" stroke="#181818" stroke-width="1.5" stroke-linecap="round" stroke-linejoin="round"/>
<path d="M21.0037 4.27078L19.0149 6.25961L17.7394 4.98408" stroke="#181818" stroke-width="1.5" stroke-linecap="round" stroke-linejoin="round"/>
</svg>
