<svg width="24" height="24" viewBox="0 0 24 24" fill="none" xmlns="http://www.w3.org/2000/svg">
<path d="M13.875 19H3C2.448 19 2 18.552 2 18V17C2 16.448 2.448 16 3 16H13.875" stroke="#181818" stroke-width="1.5" stroke-linecap="round" stroke-linejoin="round"/>
<path d="M20 5C20 3.895 19.105 3 18 3H5C3.895 3 3 3.895 3 5V16" stroke="#181818" stroke-width="1.5" stroke-linecap="round" stroke-linejoin="round"/>
<path d="M20 8V5" stroke="#181818" stroke-width="1.5" stroke-linecap="round" stroke-linejoin="round"/>
<path fill-rule="evenodd" clip-rule="evenodd" d="M15.875 8H20C21.105 8 22 8.895 22 10V19C22 20.105 21.105 21 20 21H15.875C14.77 21 13.875 20.105 13.875 19V10C13.875 8.895 14.77 8 15.875 8Z" stroke="#BFBFBB" stroke-width="1.5" stroke-linecap="round" stroke-linejoin="round"/>
<path d="M17.06 18.75H18.81" stroke="#BFBFBB" stroke-width="1.5" stroke-linecap="round" stroke-linejoin="round"/>
</svg>
