<svg width="24" height="24" viewBox="0 0 24 24" fill="none" xmlns="http://www.w3.org/2000/svg">
<path d="M9.32789 14.6711L14.6701 9.32889" stroke="#181818" stroke-width="1.5" stroke-linecap="round" stroke-linejoin="round"/>
<path d="M14.9112 14.484C15.0257 14.6022 15.0236 14.7905 14.9067 14.9062C14.7898 15.0219 14.6015 15.0219 14.4845 14.9062C14.3676 14.7905 14.3656 14.6022 14.48 14.484C14.5366 14.4257 14.6144 14.3927 14.6956 14.3927C14.7769 14.3927 14.8547 14.4257 14.9112 14.484" stroke="#181818" stroke-width="1.5" stroke-linecap="round" stroke-linejoin="round"/>
<path d="M9.51897 9.08478C9.63341 9.20295 9.6314 9.39122 9.51446 9.50692C9.39752 9.62262 9.20923 9.62262 9.09229 9.50692C8.97535 9.39122 8.97334 9.20295 9.08779 9.08478C9.14432 9.0264 9.22211 8.99345 9.30338 8.99345C9.38464 8.99345 9.46243 9.0264 9.51897 9.08478" stroke="#181818" stroke-width="1.5" stroke-linecap="round" stroke-linejoin="round"/>
<rect x="2.99625" y="2.99625" width="18.0075" height="18.0075" rx="5" stroke="#181818" stroke-width="1.5" stroke-linecap="round" stroke-linejoin="round"/>
</svg>
