<svg width="24" height="24" viewBox="0 0 24 24" fill="none" xmlns="http://www.w3.org/2000/svg">
<path fill-rule="evenodd" clip-rule="evenodd" d="M21.0038 11.4998V20.0033C21.0038 20.5559 20.5559 21.0038 20.0033 21.0038H14.0008C13.4483 21.0038 13.0004 20.5559 13.0004 20.0033V11.4998C13.0004 10.9473 13.4483 10.4994 14.0008 10.4994H20.0033C20.5559 10.4994 21.0038 10.9473 21.0038 11.4998Z" stroke="#181818" stroke-width="1.5" stroke-linecap="round" stroke-linejoin="round"/>
<path d="M21.0038 14.0008H13.0004" stroke="#181818" stroke-width="1.5" stroke-linecap="round" stroke-linejoin="round"/>
<path d="M6.49771 6.99792H15.0013" stroke="#BFBFBB" stroke-width="1.5" stroke-linecap="round" stroke-linejoin="round"/>
<path d="M6.49771 10.4994H8.99875" stroke="#BFBFBB" stroke-width="1.5" stroke-linecap="round" stroke-linejoin="round"/>
<path d="M6.49771 14.0008H8.99875" stroke="#BFBFBB" stroke-width="1.5" stroke-linecap="round" stroke-linejoin="round"/>
<path d="M9.99917 18.0025H4.99709C3.89206 18.0025 2.99625 17.1067 2.99625 16.0017V4.99709C2.99625 3.89206 3.89206 2.99625 4.99709 2.99625H17.0021C18.1071 2.99625 19.0029 3.89206 19.0029 4.99709V7.99834" stroke="#181818" stroke-width="1.5" stroke-linecap="round" stroke-linejoin="round"/>
<path d="M15.7516 16.2018C15.7239 16.2018 15.7015 16.2241 15.7015 16.2518C15.7015 16.2794 15.7239 16.3018 15.7516 16.3018C15.7792 16.3018 15.8016 16.2794 15.8016 16.2518C15.8016 16.2241 15.7792 16.2018 15.7516 16.2018" stroke="#181818" stroke-width="1.5" stroke-linecap="round" stroke-linejoin="round"/>
<path d="M18.2526 16.2018C18.225 16.2018 18.2026 16.2241 18.2026 16.2518C18.2026 16.2794 18.225 16.3018 18.2526 16.3018C18.2802 16.3018 18.3026 16.2794 18.3026 16.2518C18.3026 16.2241 18.2802 16.2018 18.2526 16.2018" stroke="#181818" stroke-width="1.5" stroke-linecap="round" stroke-linejoin="round"/>
<path d="M15.7516 18.7028C15.7239 18.7028 15.7015 18.7252 15.7015 18.7528C15.7015 18.7804 15.7239 18.8028 15.7516 18.8028C15.7792 18.8028 15.8016 18.7804 15.8016 18.7528C15.8016 18.7252 15.7792 18.7028 15.7516 18.7028" stroke="#181818" stroke-width="1.5" stroke-linecap="round" stroke-linejoin="round"/>
<path d="M18.2526 18.7028C18.225 18.7028 18.2026 18.7252 18.2026 18.7528C18.2026 18.7804 18.225 18.8028 18.2526 18.8028C18.2802 18.8028 18.3026 18.7804 18.3026 18.7528C18.3026 18.7252 18.2802 18.7028 18.2526 18.7028" stroke="#181818" stroke-width="1.5" stroke-linecap="round" stroke-linejoin="round"/>
</svg>
