<svg width="24" height="24" viewBox="0 0 24 24" fill="none" xmlns="http://www.w3.org/2000/svg">
<path fill-rule="evenodd" clip-rule="evenodd" d="M7 21H17.5C18.8807 21 20 19.8807 20 18.5V8.37167C20 7.57602 19.6839 6.81296 19.1213 6.25035L16.7497 3.87868C16.187 3.31607 15.424 3 14.6283 3H7.5C6.11929 3 5 4.11929 5 5.5V19C5 20.1046 5.89543 21 7 21Z" stroke="#181818" stroke-width="1.5" stroke-linecap="round" stroke-linejoin="round"/>
<path d="M19.9764 8H16.5C15.6716 8 15 7.32843 15 6.5V3.02362" stroke="#181818" stroke-width="1.5" stroke-linecap="round" stroke-linejoin="round"/>
<path d="M16 12H12.25" stroke="#181818" stroke-width="1.5" stroke-linecap="round" stroke-linejoin="round"/>
<path d="M16 16H12.25" stroke="#181818" stroke-width="1.5" stroke-linecap="round" stroke-linejoin="round"/>
<path d="M9 11.875C8.93096 11.875 8.875 11.931 8.875 12C8.875 12.069 8.93096 12.125 9 12.125C9.06904 12.125 9.125 12.069 9.125 12C9.125 11.931 9.06904 11.875 9 11.875" stroke="#181818" stroke-width="1.5" stroke-linecap="round" stroke-linejoin="round"/>
<path d="M9 15.875C8.93096 15.875 8.875 15.931 8.875 16C8.875 16.069 8.93096 16.125 9 16.125C9.06904 16.125 9.125 16.069 9.125 16C9.125 15.931 9.06904 15.875 9 15.875" stroke="#181818" stroke-width="1.5" stroke-linecap="round" stroke-linejoin="round"/>
</svg>
