<svg width="24" height="24" viewBox="0 0 24 24" fill="none" xmlns="http://www.w3.org/2000/svg">
<path d="M6 8V5C6 3.89543 6.89543 3 8 3H12.4706C12.8016 3 13.1111 3.1638 13.2973 3.43748L14.7432 5.56248C14.9294 5.83618 15.239 6 15.57 6H20C21.1046 6 22 6.89543 22 8V14C22 15.1046 21.1046 16 20 16H18" stroke="#181818" stroke-width="1.5" stroke-linecap="round" stroke-linejoin="round"/>
<path fill-rule="evenodd" clip-rule="evenodd" d="M18 19C18 20.1046 17.1046 21 16 21H5C3.89543 21 3 20.1046 3 19V10C3 8.89543 3.89543 8 5 8H9.47056C9.80157 8 10.1111 8.1638 10.2973 8.43748L11.7432 10.5625C11.9294 10.8362 12.239 11 12.57 11H16C17.1046 11 18 11.8954 18 13V19Z" stroke="#181818" stroke-width="1.5" stroke-linecap="round" stroke-linejoin="round"/>
</svg>
