<svg width="24" height="24" viewBox="0 0 24 24" fill="none" xmlns="http://www.w3.org/2000/svg">
<path fill-rule="evenodd" clip-rule="evenodd" d="M19 6.94H12.529C12.1978 6.93999 11.8881 6.77596 11.702 6.502L10.297 4.437C10.1109 4.16368 9.80166 4.00008 9.471 4H5C4.46952 3.99985 3.96073 4.21052 3.58563 4.58563C3.21052 4.96073 2.99985 5.46952 3 6V18C2.99985 18.5305 3.21052 19.0393 3.58563 19.4144C3.96073 19.7895 4.46952 20.0001 5 20H19C19.5305 20.0001 20.0393 19.7895 20.4144 19.4144C20.7895 19.0393 21.0001 18.5305 21 18V8.94C21 7.83545 20.1045 6.94005 19 6.94V6.94Z" stroke="#181818" stroke-width="1.5" stroke-linecap="round" stroke-linejoin="round"/>
<path d="M7 16H17" stroke="#BFBFBB" stroke-width="1.5" stroke-linecap="round" stroke-linejoin="round"/>
</svg>
