<svg width="24" height="24" viewBox="0 0 24 24" fill="none" xmlns="http://www.w3.org/2000/svg">
<path fill-rule="evenodd" clip-rule="evenodd" d="M5.9975 21.0037H3.99666C3.44423 21.0035 2.99645 20.5558 2.99625 20.0033V14.0008C2.99645 13.4484 3.44423 13.0006 3.99666 13.0004H5.9975C6.54993 13.0006 6.99771 13.4484 6.99791 14.0008V20.0033C6.99771 20.5558 6.54993 21.0035 5.9975 21.0037V21.0037Z" stroke="#181818" stroke-width="1.5" stroke-linecap="round" stroke-linejoin="round"/>
<path d="M13.0004 17.0021H14.9612C15.3942 17.0023 15.8155 16.8619 16.1617 16.6019L18.5787 14.7892C19.1822 14.3369 20.0263 14.3971 20.5595 14.9302V14.9302C20.8439 15.2143 21.0037 15.5997 21.0037 16.0017C21.0037 16.4036 20.8439 16.7891 20.5595 17.0731L18.4857 19.147C17.9269 19.7055 17.2155 20.0863 16.4408 20.2414L13.5096 20.8277C12.9285 20.9439 12.3288 20.9296 11.7539 20.7857L9.10277 20.1234C8.78583 20.0435 8.46022 20.0032 8.13337 20.0033H6.99789" stroke="#181818" stroke-width="1.5" stroke-linecap="round" stroke-linejoin="round"/>
<path d="M13.0004 17.0021H14.486C14.888 17.0022 15.2736 16.8425 15.5578 16.5583C15.8421 16.274 16.0017 15.8884 16.0016 15.4864V15.1833C16.0018 14.4881 15.5286 13.8821 14.8542 13.7137L12.5612 13.1405C12.1885 13.0475 11.8059 13.0004 11.4217 13.0004V13.0004C10.4941 13.0001 9.58722 13.2748 8.81565 13.7897L6.99789 15.0012" stroke="#181818" stroke-width="1.5" stroke-linecap="round" stroke-linejoin="round"/>
<path d="M19.2708 6.73007C20.2475 7.70679 20.2475 9.29036 19.2708 10.2671C18.2941 11.2438 16.7105 11.2438 15.7338 10.2671C14.7571 9.29036 14.7571 7.70679 15.7338 6.73007C16.2028 6.26103 16.839 5.99753 17.5023 5.99753C18.1656 5.99753 18.8017 6.26103 19.2708 6.73007" stroke="#181818" stroke-width="1.5" stroke-linecap="round" stroke-linejoin="round"/>
<path fill-rule="evenodd" clip-rule="evenodd" d="M6.75674 5.87C6.27464 5.3879 6.27464 4.60627 6.75674 4.12417L8.62602 2.25488C9.10812 1.77279 9.88976 1.77279 10.3719 2.25488L12.2411 4.12417C12.7232 4.60627 12.7232 5.3879 12.2411 5.87L10.3719 7.73929C9.88976 8.22139 9.10812 8.22139 8.62602 7.73929L6.75674 5.87Z" stroke="#181818" stroke-width="1.5" stroke-linecap="round" stroke-linejoin="round"/>
</svg>
