<svg width="24" height="24" viewBox="0 0 24 24" fill="none" xmlns="http://www.w3.org/2000/svg">
<path d="M9 16H5C3.34315 16 2 14.6569 2 13V6C2 4.34315 3.34315 3 5 3H18C19.6569 3 21 4.34315 21 6V12" stroke="#181818" stroke-width="1.2" stroke-linecap="round" stroke-linejoin="round"/>
<path fill-rule="evenodd" clip-rule="evenodd" d="M15 16.9998V12.5C15 11.6716 15.6716 11 16.5 11V11C17.3284 11 18 11.6716 18 12.5V14.7507L20.3217 15.1293C21.3832 15.3024 22.1177 16.2839 21.9844 17.3511L21.6224 20.248C21.4973 21.2489 20.6465 22 19.6379 22H15.8418C15.173 22 14.5485 21.6657 14.1776 21.1093L12.2376 18.1988C11.8636 17.6379 11.9376 16.891 12.4143 16.4142H12.4143C12.6796 16.149 13.0393 16 13.4144 16C13.7895 16 14.1493 16.149 14.4145 16.4142L15 16.9998Z" stroke="#181818" stroke-width="1.2" stroke-linecap="round" stroke-linejoin="round"/>
<path fill-rule="evenodd" clip-rule="evenodd" d="M8.83031 7.51723L9.00001 7.68953L9.17542 7.50413C9.47311 7.18653 9.88769 7.00442 10.323 7.00005C10.7583 6.99568 11.1764 7.16943 11.4804 7.48099L11.5161 7.5172C12.1613 8.18028 12.1613 9.23658 11.5161 9.89966L9.76179 11.6809C9.56086 11.8851 9.28642 12 9 12C8.71358 12 8.43914 11.8851 8.23822 11.6809L6.48401 9.8997C5.83875 9.23661 5.83875 8.18032 6.48401 7.51723V7.51723C6.79343 7.20289 7.21607 7.02587 7.65716 7.02587C8.09824 7.02587 8.52088 7.20289 8.83031 7.51723V7.51723Z" stroke="#181818" stroke-width="1.2" stroke-linecap="round" stroke-linejoin="round"/>
</svg>
