<svg width="24" height="24" viewBox="0 0 24 24" fill="none" xmlns="http://www.w3.org/2000/svg">
<path d="M7.99834 21.0037V3.99667C7.99834 3.44415 8.44624 2.99625 8.99875 2.99625H15.0013C15.5538 2.99625 16.0017 3.44415 16.0017 3.99667V21.0037" stroke="#181818" stroke-width="1.5" stroke-linecap="round" stroke-linejoin="round"/>
<path d="M21.0038 21.0038V7.9113C21.0038 7.40685 20.5948 6.99792 20.0904 6.99792H16.0017" stroke="#181818" stroke-width="1.5" stroke-linecap="round" stroke-linejoin="round"/>
<path d="M7.99834 6.99792H3.90963C3.40519 6.99792 2.99625 7.40685 2.99625 7.9113V21.0038" stroke="#181818" stroke-width="1.5" stroke-linecap="round" stroke-linejoin="round"/>
<path d="M16.0017 9.99917H18.5027" stroke="#181818" stroke-width="1.5" stroke-linecap="round" stroke-linejoin="round"/>
<path d="M16.0017 13.0004H18.5027" stroke="#181818" stroke-width="1.5" stroke-linecap="round" stroke-linejoin="round"/>
<path d="M16.0017 16.0017H18.5027" stroke="#181818" stroke-width="1.5" stroke-linecap="round" stroke-linejoin="round"/>
<path d="M5.49729 9.99917H7.99833" stroke="#181818" stroke-width="1.5" stroke-linecap="round" stroke-linejoin="round"/>
<path d="M5.49729 13.0004H7.99833" stroke="#181818" stroke-width="1.5" stroke-linecap="round" stroke-linejoin="round"/>
<path d="M5.49729 16.0017H7.99833" stroke="#181818" stroke-width="1.5" stroke-linecap="round" stroke-linejoin="round"/>
<path d="M10.4994 13.0004H13.5006" stroke="#181818" stroke-width="1.5" stroke-linecap="round" stroke-linejoin="round"/>
<path d="M10.4994 16.0017H13.5006" stroke="#181818" stroke-width="1.5" stroke-linecap="round" stroke-linejoin="round"/>
<path d="M10.4994 9.99917H13.5006" stroke="#181818" stroke-width="1.5" stroke-linecap="round" stroke-linejoin="round"/>
<path d="M10.4994 6.99792H13.5006" stroke="#181818" stroke-width="1.5" stroke-linecap="round" stroke-linejoin="round"/>
<path d="M12 19.0029V21.0037" stroke="#181818" stroke-width="1.5" stroke-linecap="round" stroke-linejoin="round"/>
<path d="M22.0042 21.0037H1.99583" stroke="#181818" stroke-width="1.5" stroke-linecap="round" stroke-linejoin="round"/>
</svg>
