<svg width="24" height="24" viewBox="0 0 24 24" fill="none" xmlns="http://www.w3.org/2000/svg">
<path d="M9.68471 9.68471C9.92173 8.66315 10.8522 7.95485 11.9 7.99834C13.0726 7.93339 14.0779 8.82698 14.1509 9.99917C14.1509 11.5037 12 12 12 13.0004" stroke="#181818" stroke-width="1.5" stroke-linecap="round" stroke-linejoin="round"/>
<path d="M12.1252 15.7517C12.1251 15.8207 12.0691 15.8766 12.0001 15.8766C11.9311 15.8766 11.8751 15.8206 11.8751 15.7516C11.8751 15.6826 11.931 15.6266 12 15.6265C12.0332 15.6265 12.0651 15.6397 12.0886 15.6631C12.1121 15.6866 12.1253 15.7185 12.1252 15.7517" stroke="#181818" stroke-width="1.5" stroke-linecap="round" stroke-linejoin="round"/>
<path fill-rule="evenodd" clip-rule="evenodd" d="M4.62841 17.1604C1.9453 13.3307 2.63482 8.08536 6.21651 5.07916C9.79821 2.07295 15.0836 2.30337 18.3901 5.60987C21.6966 8.91636 21.9271 14.2018 18.9209 17.7835C15.9147 21.3652 10.6693 22.0547 6.8396 19.3716L3.99667 20.0033L4.62841 17.1604Z" stroke="#181818" stroke-width="1.5" stroke-linecap="round" stroke-linejoin="round"/>
</svg>
