<svg width="24" height="24" viewBox="0 0 24 24" fill="none" xmlns="http://www.w3.org/2000/svg">
<path d="M7.99833 21.0038V7.99833C7.99833 7.44582 8.44623 6.99792 8.99875 6.99792H15.0012C15.5538 6.99792 16.0017 7.44582 16.0017 7.99833V21.0038" stroke="#181818" stroke-width="1.5" stroke-linecap="round" stroke-linejoin="round"/>
<path fill-rule="evenodd" clip-rule="evenodd" d="M10.9996 3.99667H13.0004C13.5529 3.99667 14.0008 4.44457 14.0008 4.99708V6.99792H9.99916V4.99708C9.99916 4.44457 10.4471 3.99667 10.9996 3.99667Z" stroke="#181818" stroke-width="1.5" stroke-linecap="round" stroke-linejoin="round"/>
<path d="M12 1.99583V3.99666" stroke="#181818" stroke-width="1.5" stroke-linecap="round" stroke-linejoin="round"/>
<path d="M7.99833 21.0037V9.99916H3.99667C3.44415 9.99916 2.99625 10.4471 2.99625 10.9996V21.0037" stroke="#181818" stroke-width="1.5" stroke-linecap="round" stroke-linejoin="round"/>
<path d="M16.0017 16.0017H18.5027" stroke="#181818" stroke-width="1.5" stroke-linecap="round" stroke-linejoin="round"/>
<path d="M5.49729 13.0004H7.99833" stroke="#181818" stroke-width="1.5" stroke-linecap="round" stroke-linejoin="round"/>
<path d="M5.49729 16.0017H7.99833" stroke="#181818" stroke-width="1.5" stroke-linecap="round" stroke-linejoin="round"/>
<path d="M10.4994 13.0004H13.5006" stroke="#181818" stroke-width="1.5" stroke-linecap="round" stroke-linejoin="round"/>
<path d="M10.4994 16.0017H13.5006" stroke="#181818" stroke-width="1.5" stroke-linecap="round" stroke-linejoin="round"/>
<path d="M10.4994 13.0004H13.5006" stroke="#181818" stroke-width="1.5" stroke-linecap="round" stroke-linejoin="round"/>
<path d="M10.4994 9.99917H13.5006" stroke="#181818" stroke-width="1.5" stroke-linecap="round" stroke-linejoin="round"/>
<path d="M12 19.5031V21.0037" stroke="#181818" stroke-width="1.5" stroke-linecap="round" stroke-linejoin="round"/>
<path d="M22.0042 21.0037H1.99583" stroke="#181818" stroke-width="1.5" stroke-linecap="round" stroke-linejoin="round"/>
<path d="M21.0037 21.0037V14.0008C21.0037 13.4483 20.5558 13.0004 20.0033 13.0004H16.0017V21.0037" stroke="#181818" stroke-width="1.5" stroke-linecap="round" stroke-linejoin="round"/>
</svg>
