<svg width="24" height="24" viewBox="0 0 24 24" fill="none" xmlns="http://www.w3.org/2000/svg">
<path d="M9.255 12.001H12.748" stroke="#181818" stroke-width="1.5" stroke-linecap="round" stroke-linejoin="round"/>
<path d="M13.891 14.655C12.83 15.115 11.558 14.926 10.691 14.058C9.55401 12.921 9.55401 11.078 10.691 9.941C11.559 9.073 12.831 8.884 13.891 9.344" stroke="#181818" stroke-width="1.5" stroke-linecap="round" stroke-linejoin="round"/>
<path fill-rule="evenodd" clip-rule="evenodd" d="M19.804 18.213V18.213C17.299 17.712 14.715 17.774 12.237 18.393L12 18.453C9.366 19.111 6.619 19.177 3.957 18.644L3.804 18.613C3.336 18.52 3 18.109 3 17.633V6.794C3 6.163 3.577 5.69 4.196 5.813V5.813C6.701 6.314 9.285 6.252 11.763 5.633L12.236 5.515C14.714 4.896 17.299 4.834 19.803 5.335L20.195 5.413C20.664 5.507 21 5.917 21 6.394V17.233C21 17.864 20.423 18.337 19.804 18.213V18.213Z" stroke="#181818" stroke-width="1.5" stroke-linecap="round" stroke-linejoin="round"/>
</svg>
