<svg width="24" height="24" viewBox="0 0 24 24" fill="none" xmlns="http://www.w3.org/2000/svg">
<path fill-rule="evenodd" clip-rule="evenodd" d="M18.2806 14.1845C18.4543 14.1002 18.661 14.1237 18.8114 14.2447C18.9618 14.3658 19.0289 14.5627 18.9837 14.7503C18.6182 16.1831 17.8741 17.4912 16.8293 18.5375C15.3219 20.0851 13.2614 20.9704 11.1012 20.9987C8.94102 21.027 6.85808 20.1959 5.31069 18.6883C2.17219 15.4642 2.24023 10.3066 5.46269 7.16641C6.50342 6.1263 7.80385 5.38406 9.22869 5.01691C9.4201 4.97085 9.62092 5.03926 9.74439 5.1926C9.86787 5.34595 9.89188 5.55673 9.80605 5.73391C8.63868 8.16637 9.1138 11.0689 10.9958 13.0022C12.9331 14.8906 15.8456 15.3633 18.2806 14.1845Z" stroke="#181818" stroke-width="1.5" stroke-linecap="round" stroke-linejoin="round"/>
<path fill-rule="evenodd" clip-rule="evenodd" d="M17.3394 3.39166C17.4715 3.15018 17.7248 3 18 3C18.2752 3 18.5285 3.15018 18.6606 3.39166L19.2438 4.45807C19.3126 4.58394 19.4161 4.68742 19.5419 4.75625L20.6083 5.33943C20.8498 5.47149 21 5.72478 21 6.00001C21 6.27523 20.8498 6.52853 20.6083 6.66058L19.5419 7.24376C19.4161 7.31259 19.3126 7.41608 19.2438 7.54194L18.6606 8.60835C18.5285 8.84983 18.2752 9.00002 18 9.00002C17.7248 9.00002 17.4715 8.84983 17.3394 8.60835L16.7562 7.54194C16.6874 7.41608 16.5839 7.31259 16.4581 7.24376L15.3917 6.66058C15.1502 6.52853 15 6.27523 15 6.00001C15 5.72478 15.1502 5.47149 15.3917 5.33943L16.4581 4.75625C16.5839 4.68742 16.6874 4.58394 16.7562 4.45807L17.3394 3.39166Z" stroke="#181818" stroke-width="1.5" stroke-linecap="round" stroke-linejoin="round"/>
</svg>
