<svg width="24" height="24" viewBox="0 0 24 24" fill="none" xmlns="http://www.w3.org/2000/svg">
<path d="M11 7L6 2" stroke="#181818" stroke-width="1.5" stroke-linecap="round" stroke-linejoin="round"/>
<path d="M18.992 12H2.041" stroke="#181818" stroke-width="1.5" stroke-linecap="round" stroke-linejoin="round"/>
<path d="M21.145 18.38C20.5619 17.9007 20.1583 17.238 20 16.5C19.8448 17.2392 19.4406 17.9028 18.855 18.38C18.28 18.84 18 19.4 18 19.975C17.9967 20.2397 18.046 20.5025 18.145 20.748C18.244 20.9936 18.3908 21.217 18.5769 21.4054C18.7629 21.5938 18.9845 21.7433 19.2288 21.8454C19.4731 21.9475 19.7352 22 20 22C20.2648 22 20.5269 21.9475 20.7712 21.8454C21.0155 21.7433 21.2371 21.5938 21.4231 21.4054C21.6092 21.217 21.756 20.9936 21.855 20.748C21.954 20.5025 22.0033 20.2397 22 19.975C22 19.395 21.715 18.845 21.145 18.38Z" stroke="#181818" stroke-width="1.5" stroke-linecap="round" stroke-linejoin="round"/>
<path d="M8.49999 4.49999L10.648 2.35199C10.874 2.12605 11.1804 1.99911 11.5 1.99911C11.8195 1.99911 12.126 2.12605 12.352 2.35199L19.648 9.64799C19.8739 9.87396 20.0009 10.1804 20.0009 10.5C20.0009 10.8195 19.8739 11.126 19.648 11.352L12.056 18.944C11.3781 19.6218 10.4587 20.0026 9.49999 20.0026C8.54133 20.0026 7.62192 19.6218 6.94399 18.944L3.05599 15.056C2.37817 14.3781 1.99738 13.4587 1.99738 12.5C1.99738 11.5413 2.37817 10.6219 3.05599 9.94399L5.66999 7.32999" stroke="#181818" stroke-width="1.5" stroke-linecap="round" stroke-linejoin="round"/>
</svg>
