<svg width="24" height="24" viewBox="0 0 24 24" fill="none" xmlns="http://www.w3.org/2000/svg">
<path fill-rule="evenodd" clip-rule="evenodd" d="M17.002 12.4499L19.6969 9.75492C20.1 9.35192 20.1 8.69792 19.6969 8.29492L15.7049 4.30292C15.302 3.89992 14.648 3.89992 14.2449 4.30292L11.55 6.99792L7.225 8.46592C6.518 8.70592 5.996 9.30892 5.859 10.0419L4 19.9999L13.958 18.1409C14.692 18.0039 15.294 17.4819 15.534 16.7749L17.002 12.4499Z" stroke="#181818" stroke-width="1.2" stroke-linecap="round" stroke-linejoin="round"/>
<path d="M17.0021 12.45L11.5521 7" stroke="#181818" stroke-width="1.2" stroke-linecap="round" stroke-linejoin="round"/>
<path d="M4 19.9999L9.19 14.8099" stroke="#181818" stroke-width="1.2" stroke-linecap="round" stroke-linejoin="round"/>
<path d="M11.7784 12.2204C12.495 12.937 12.495 14.0989 11.7784 14.8155C11.0618 15.5321 9.8999 15.5321 9.18329 14.8155C8.46667 14.0989 8.46667 12.937 9.18329 12.2204C9.8999 11.5038 11.0618 11.5038 11.7784 12.2204Z" stroke="#181818" stroke-width="1.2" stroke-linecap="round" stroke-linejoin="round"/>
</svg>
