<svg width="24" height="24" viewBox="0 0 24 24" fill="none" xmlns="http://www.w3.org/2000/svg">
<path d="M6 10L3.82841 7.82843C2.72384 6.72386 2.72384 4.933 3.82841 3.82843V3.82843C4.35884 3.298 5.07826 3 5.82841 3C6.57856 3 7.29798 3.298 7.82841 3.82843L10 6.00001" stroke="#181818" stroke-width="1.5" stroke-linecap="round" stroke-linejoin="round"/>
<path d="M5 9L9 5" stroke="#181818" stroke-width="1.5" stroke-linecap="round" stroke-linejoin="round"/>
<path d="M18 14L19.7089 15.7089C19.9881 15.9881 20.1784 16.3437 20.2559 16.7309L20.99 20.4017C21.0228 20.5656 20.9715 20.7351 20.8533 20.8533C20.7351 20.9715 20.5656 21.0228 20.4016 20.99L16.7309 20.2559C16.3437 20.1784 15.9881 19.9881 15.7089 19.7089L14 18" stroke="#181818" stroke-width="1.5" stroke-linecap="round" stroke-linejoin="round"/>
<path fill-rule="evenodd" clip-rule="evenodd" d="M17.76 10.76L7.82 20.7C7.41943 21.1 6.77057 21.1 6.37 20.7L3.3 17.63C2.89998 17.2294 2.89998 16.5806 3.3 16.18L16.18 3.29999C16.5806 2.89996 17.2294 2.89996 17.63 3.29999L20.7 6.36999C21.1 6.77055 21.1 7.41942 20.7 7.81999L17.76 10.76Z" stroke="#181818" stroke-width="1.5" stroke-linecap="round" stroke-linejoin="round"/>
<path d="M15.1213 6.63606L13.9826 5.49738" stroke="#181818" stroke-width="1.5" stroke-linecap="round" stroke-linejoin="round"/>
<path d="M12.7929 9.96449L11.1542 8.32581" stroke="#181818" stroke-width="1.5" stroke-linecap="round" stroke-linejoin="round"/>
<path d="M9.46447 12.2929L8.32579 11.1542" stroke="#181818" stroke-width="1.5" stroke-linecap="round" stroke-linejoin="round"/>
<path d="M7.13604 15.6213L5.49736 13.9826" stroke="#181818" stroke-width="1.5" stroke-linecap="round" stroke-linejoin="round"/>
</svg>
