<svg width="24" height="24" viewBox="0 0 24 24" fill="none" xmlns="http://www.w3.org/2000/svg">
<path d="M12 9L3.586 17.414C3.2109 17.789 3.00011 18.2976 3 18.828V20.172C2.99989 20.7024 2.7891 21.211 2.414 21.586C2.78899 21.2109 3.29761 21.0001 3.828 21H5.172C5.70239 20.9999 6.21102 20.7891 6.586 20.414L15 12" stroke="#181818" stroke-width="1.5" stroke-linecap="round" stroke-linejoin="round"/>
<path d="M18 8.99999L18.4 9.39999C18.597 9.59697 18.7532 9.83082 18.8598 10.0882C18.9665 10.3456 19.0213 10.6214 19.0213 10.9C19.0213 11.1786 18.9665 11.4544 18.8598 11.7118C18.7532 11.9692 18.597 12.203 18.4 12.4C18.203 12.597 17.9692 12.7532 17.7118 12.8598C17.4544 12.9664 17.1786 13.0213 16.9 13.0213C16.6214 13.0213 16.3456 12.9664 16.0882 12.8598C15.8308 12.7532 15.597 12.597 15.4 12.4L11.6 8.59999C11.2022 8.20216 10.9787 7.6626 10.9787 7.09999C10.9787 6.82141 11.0336 6.54556 11.1402 6.28819C11.2468 6.03082 11.403 5.79697 11.6 5.59999C11.797 5.40301 12.0308 5.24675 12.2882 5.14014C12.5456 5.03354 12.8214 4.97867 13.1 4.97867C13.6626 4.97867 14.2022 5.20216 14.6 5.59999L15 5.99999L18.4 2.59999C18.7978 2.20216 19.3374 1.97867 19.9 1.97867C20.4626 1.97867 21.0022 2.20216 21.4 2.59999C21.7978 2.99781 22.0213 3.53738 22.0213 4.09999C22.0213 4.6626 21.7978 5.20216 21.4 5.59999L18 8.99999Z" stroke="#181818" stroke-width="1.5" stroke-linecap="round" stroke-linejoin="round"/>
<path d="M2 22L2.414 21.586" stroke="#181818" stroke-width="1.5" stroke-linecap="round" stroke-linejoin="round"/>
</svg>
