<svg width="24" height="24" viewBox="0 0 24 24" fill="none" xmlns="http://www.w3.org/2000/svg">
<path d="M12 15.5H8" stroke="#181818" stroke-width="1.5" stroke-linecap="round" stroke-linejoin="round"/>
<path d="M16 12H8" stroke="#181818" stroke-width="1.5" stroke-linecap="round" stroke-linejoin="round"/>
<path d="M8 8.50001H12" stroke="#181818" stroke-width="1.5" stroke-linecap="round" stroke-linejoin="round"/>
<path d="M15 8.50001H16" stroke="#181818" stroke-width="1.5" stroke-linecap="round" stroke-linejoin="round"/>
<path fill-rule="evenodd" clip-rule="evenodd" d="M20 19.5025V4.4975C20 4.11945 19.7868 3.77372 19.449 3.60398L18.459 3.10646C18.1785 2.9655 17.8481 2.96444 17.5667 3.10359L15.9942 3.88118L14.4533 3.1071C14.172 2.96578 13.8406 2.96519 13.5588 3.10549L12 3.88152L10.4412 3.10552C10.1594 2.96521 9.82799 2.96581 9.54668 3.10713L8.00578 3.88121L6.4333 3.10362C6.15191 2.96447 5.82151 2.96553 5.54102 3.10649L4.55102 3.60401C4.21321 3.77375 4.00001 4.11947 4 4.49753V19.5025C4 19.8805 4.2132 20.2262 4.551 20.396L5.541 20.8935C5.82149 21.0345 6.1519 21.0355 6.4333 20.8964L8.00577 20.1188L9.54668 20.8929C9.82799 21.0342 10.1594 21.0348 10.4412 20.8945L12 20.1185L13.5588 20.8945C13.8406 21.0348 14.172 21.0342 14.4533 20.8929L15.9942 20.1188L17.5667 20.8964C17.8481 21.0355 18.1785 21.0345 18.459 20.8935L19.449 20.396C19.7868 20.2263 20 19.8805 20 19.5025Z" stroke="#181818" stroke-width="1.5" stroke-linecap="round" stroke-linejoin="round"/>
</svg>
