<svg width="24" height="24" viewBox="0 0 24 24" fill="none" xmlns="http://www.w3.org/2000/svg">
<path d="M12 20.0033C14.9314 20.0036 17.6284 18.4012 19.0299 15.8266" stroke="#181818" stroke-width="1.5" stroke-linecap="round" stroke-linejoin="round"/>
<path d="M20.0033 12C20.0033 7.57989 16.4201 3.99667 12 3.99667" stroke="#181818" stroke-width="1.5" stroke-linecap="round" stroke-linejoin="round"/>
<path d="M12 3.99667C9.06862 3.99643 6.37165 5.5988 4.97008 8.17341" stroke="#181818" stroke-width="1.5" stroke-linecap="round" stroke-linejoin="round"/>
<path d="M3.99667 12C3.99667 16.4201 7.57988 20.0033 12 20.0033" stroke="#181818" stroke-width="1.5" stroke-linecap="round" stroke-linejoin="round"/>
<path d="M4.97008 8.17341C6.71955 4.95839 10.4272 3.33988 13.9742 4.24276C17.5213 5.14564 20.0039 8.33981 20.0033 12" stroke="#181818" stroke-width="1.5" stroke-linecap="round" stroke-linejoin="round"/>
<path d="M3.99667 12C3.99611 15.6602 6.47869 18.8544 10.0258 19.7572C13.5729 20.6601 17.2805 19.0416 19.0299 15.8266" stroke="#181818" stroke-width="1.5" stroke-linecap="round" stroke-linejoin="round"/>
<path d="M8.04535 8.1734H4.50888V4.63593" stroke="#181818" stroke-width="1.5" stroke-linecap="round" stroke-linejoin="round"/>
<path d="M15.9547 15.8266H19.4911V19.3641" stroke="#181818" stroke-width="1.5" stroke-linecap="round" stroke-linejoin="round"/>
</svg>
