<svg width="24" height="24" viewBox="0 0 24 24" fill="none" xmlns="http://www.w3.org/2000/svg">
<path d="M15.9443 5.19431C16.2267 4.92349 16.4742 4.68542 16.7233 4.39131C17.0027 4.06144 11.0359 0.931675 6.15454 5.19431C0.635227 10.0141 4.16678 16.9756 4.51836 16.5857C4.69279 16.3922 4.98262 16.1046 5.27455 15.8176M15.9443 5.19431C15.6762 5.45147 15.3766 5.73817 15.0141 6.13045C14.8711 6.28523 11.3252 3.94152 7.68746 7.20995C4.04971 10.4784 6.26013 14.7204 6.22757 14.8365C6.20759 14.9078 5.73841 15.3618 5.27455 15.8176M15.9443 5.19431C15.9443 5.19431 10.9085 3.00459 6.84671 6.13045C2.57987 9.4141 5.27455 15.8176 5.27455 15.8176" stroke="#181818" stroke-width="1.5" stroke-linecap="round"/>
<path d="M8.14507 18.6768C7.86268 18.9476 7.61523 19.1857 7.36612 19.4798C7.08673 19.8097 13.0536 22.9394 17.9349 18.6768C23.4542 13.857 19.9226 6.89545 19.5711 7.28541C19.3966 7.47888 19.1068 7.76654 18.8149 8.05345M8.14507 18.6768C8.41321 18.4196 8.71285 18.1329 9.07533 17.7406C9.21837 17.5859 12.7642 19.9296 16.402 16.6611C20.0397 13.3927 17.8293 9.15073 17.8618 9.03461C17.8818 8.96333 18.351 8.50934 18.8149 8.05345M8.14507 18.6768C8.14507 18.6768 13.1809 20.8665 17.2427 17.7406C21.5096 14.457 18.8149 8.05345 18.8149 8.05345" stroke="#181818" stroke-width="1.5" stroke-linecap="round"/>
</svg>
