<svg width="24" height="24" viewBox="0 0 24 24" fill="none" xmlns="http://www.w3.org/2000/svg">
<path fill-rule="evenodd" clip-rule="evenodd" d="M9.65302 18.6368L10.1792 19.8203C10.4988 20.54 11.2125 21.0037 12 21.0037V21.0037C12.7875 21.0037 13.5012 20.54 13.8208 19.8203L14.347 18.6368C14.5343 18.2168 14.8494 17.8667 15.2474 17.6363V17.6363C15.6478 17.4053 16.1111 17.3069 16.5709 17.3552L17.8584 17.4923C18.6415 17.5751 19.3998 17.1889 19.7932 16.5069V16.5069C20.1872 15.8253 20.1425 14.9755 19.6792 14.339L18.9169 13.2915C18.6454 12.9158 18.5004 12.4635 18.5027 12V12C18.5026 11.5377 18.649 11.0873 18.9209 10.7135L19.6832 9.66602C20.1465 9.02951 20.1912 8.17974 19.7972 7.49812V7.49812C19.4038 6.8161 18.6455 6.42989 17.8624 6.51271L16.5749 6.64977C16.1151 6.69806 15.6518 6.59966 15.2514 6.36865V6.36865C14.8526 6.13698 14.5374 5.78503 14.351 5.36323L13.8208 4.17974C13.5012 3.45999 12.7875 2.99625 12 2.99625V2.99625C11.2125 2.99625 10.4988 3.45999 10.1792 4.17974L9.65302 5.36323C9.46658 5.78503 9.1514 6.13698 8.75265 6.36865V6.36865C8.35217 6.59966 7.88889 6.69806 7.4291 6.64977L6.13756 6.51271C5.35454 6.42989 4.59623 6.8161 4.20275 7.49812V7.49812C3.80877 8.17974 3.85347 9.02951 4.3168 9.66602L5.07912 10.7135C5.35098 11.0873 5.49737 11.5377 5.49729 12V12C5.49737 12.4623 5.35098 12.9127 5.07912 13.2865L4.3168 14.334C3.85347 14.9705 3.80877 15.8203 4.20275 16.5019V16.5019C4.5966 17.1835 5.35464 17.5696 6.13756 17.4873L7.42509 17.3502C7.88489 17.3019 8.34817 17.4003 8.74864 17.6313V17.6313C9.14889 17.8624 9.46553 18.2144 9.65302 18.6368V18.6368Z" stroke="#181818" stroke-width="1.5"/>
<circle cx="12" cy="12" r="2.6481" stroke="#181818" stroke-width="1.5" stroke-linecap="round" stroke-linejoin="round"/>
</svg>
