<svg width="24" height="24" viewBox="0 0 24 24" fill="none" xmlns="http://www.w3.org/2000/svg">
<path fill-rule="evenodd" clip-rule="evenodd" d="M12 16.0017C12 13.7916 13.7916 12 16.0017 12C13.7916 12 12 10.2084 12 7.99832C12 10.2084 10.2084 12 7.99833 12C10.2084 12 12 13.7916 12 16.0017Z" stroke="#181818" stroke-width="1.5" stroke-linecap="round" stroke-linejoin="round"/>
<path fill-rule="evenodd" clip-rule="evenodd" d="M18.9399 8.06036C18.9399 6.40282 20.2836 5.05911 21.9411 5.05911C20.2836 5.05911 18.9399 3.71541 18.9399 2.05786C18.9399 3.71541 17.5962 5.05911 15.9386 5.05911C16.7346 5.05911 17.498 5.37531 18.0608 5.93816C18.6237 6.501 18.9399 7.26438 18.9399 8.06036V8.06036Z" stroke="#181818" stroke-width="1.5" stroke-linecap="round" stroke-linejoin="round"/>
<path d="M21.0037 10.9996V17.0021C21.0037 19.2121 19.2121 21.0037 17.0021 21.0037H6.99792C4.78786 21.0037 2.99625 19.2121 2.99625 17.0021L2.99625 6.99791C2.99625 4.78785 4.78786 2.99625 6.99792 2.99625L13.0004 2.99625" stroke="#181818" stroke-width="1.5" stroke-linecap="round" stroke-linejoin="round"/>
</svg>
