<svg width="24" height="24" viewBox="0 0 24 24" fill="none" xmlns="http://www.w3.org/2000/svg">
<path d="M15.8304 8.16961C17.9459 10.2851 17.9459 13.7149 15.8304 15.8304C13.7149 17.9459 10.2851 17.9459 8.16961 15.8304C6.05414 13.7149 6.05414 10.2851 8.16961 8.16961C10.2851 6.05414 13.7149 6.05414 15.8304 8.16961" stroke="#181818" stroke-width="1.625" stroke-linecap="round" stroke-linejoin="round"/>
<path d="M11.999 2C11.861 2 11.749 2.112 11.75 2.25C11.75 2.388 11.862 2.5 12 2.5C12.138 2.5 12.25 2.388 12.25 2.25C12.25 2.112 12.138 2 11.999 2" stroke="#181818" stroke-width="1.625" stroke-linecap="round" stroke-linejoin="round"/>
<path d="M11.999 21.5C11.861 21.5 11.749 21.612 11.75 21.75C11.75 21.888 11.862 22 12 22C12.138 22 12.25 21.888 12.25 21.75C12.25 21.612 12.138 21.5 11.999 21.5" stroke="#181818" stroke-width="1.625" stroke-linecap="round" stroke-linejoin="round"/>
<path d="M22.021 11.999C22.021 11.85 21.9 11.728 21.75 11.729C21.601 11.729 21.479 11.85 21.479 12C21.479 12.149 21.6 12.271 21.75 12.271C21.9 12.271 22.021 12.15 22.021 11.999" stroke="#181818" stroke-width="1.625" stroke-linecap="round" stroke-linejoin="round"/>
<path d="M2.5 11.999C2.5 11.861 2.388 11.749 2.25 11.75C2.112 11.75 2 11.862 2 12C2 12.138 2.112 12.25 2.25 12.25C2.388 12.25 2.5 12.138 2.5 11.999" stroke="#181818" stroke-width="1.625" stroke-linecap="round" stroke-linejoin="round"/>
<path d="M18.895 5.35501C19.033 5.35501 19.145 5.24301 19.144 5.10501C19.144 4.96701 19.032 4.85501 18.894 4.85501C18.756 4.85501 18.644 4.96701 18.644 5.10501C18.645 5.24401 18.756 5.35501 18.895 5.35501" stroke="#181818" stroke-width="1.625" stroke-linecap="round" stroke-linejoin="round"/>
<path d="M5.107 19.144C5.245 19.144 5.357 19.032 5.356 18.894C5.356 18.756 5.244 18.644 5.106 18.644C4.968 18.644 4.856 18.756 4.856 18.894C4.856 19.032 4.968 19.144 5.107 19.144" stroke="#181818" stroke-width="1.625" stroke-linecap="round" stroke-linejoin="round"/>
<path d="M18.895 19.144C19.033 19.144 19.145 19.032 19.144 18.894C19.144 18.756 19.032 18.644 18.894 18.644C18.756 18.644 18.644 18.756 18.644 18.894C18.644 19.032 18.756 19.144 18.895 19.144" stroke="#181818" stroke-width="1.625" stroke-linecap="round" stroke-linejoin="round"/>
<path d="M5.107 5.35599C5.245 5.35599 5.357 5.24399 5.356 5.10599C5.356 4.96799 5.244 4.85599 5.106 4.85599C4.968 4.85599 4.856 4.96799 4.856 5.10599C4.856 5.24399 4.968 5.35599 5.107 5.35599" stroke="#181818" stroke-width="1.625" stroke-linecap="round" stroke-linejoin="round"/>
</svg>
