<svg width="24" height="24" viewBox="0 0 24 24" fill="none" xmlns="http://www.w3.org/2000/svg">
<path fill-rule="evenodd" clip-rule="evenodd" d="M9.92447 18.4745C9.58692 18.8126 9.12885 19.0026 8.6511 19.0029C8.17335 19.0032 7.71508 18.8135 7.37717 18.4758L3.52401 14.6247C3.18611 14.287 2.99626 13.8288 2.99626 13.3511C2.99626 12.8733 3.18611 12.4152 3.52401 12.0774L10.0217 5.58272C10.3969 5.20771 10.9057 4.99707 11.4362 4.99707H15.0012C16.1063 4.99707 17.0021 5.89287 17.0021 6.9979V10.5579C17.0021 11.088 16.7917 11.5964 16.4172 11.9716L9.92447 18.4745Z" stroke="#181818" stroke-width="1.5" stroke-linecap="round" stroke-linejoin="round"/>
<path d="M21.0037 7.99832V11.7973C21.0037 12.328 20.7929 12.8369 20.4177 13.2121L14.7531 18.8767" stroke="#181818" stroke-width="1.5" stroke-linecap="round" stroke-linejoin="round"/>
</svg>
