<svg width="24" height="24" viewBox="0 0 24 24" fill="none" xmlns="http://www.w3.org/2000/svg">
<path d="M18.26 12L19.7786 10.4886H19.761C20.5738 9.64543 21.0192 8.51382 20.9994 7.34221C20.9795 6.17061 20.496 5.05478 19.655 4.23971C18.8312 3.44441 17.7313 3 16.5868 3C15.4423 3 14.3425 3.44441 13.5186 4.23971L12 5.75111" stroke="#181818" stroke-width="1.5" stroke-linecap="round" stroke-linejoin="round"/>
<path d="M5.75153 12L4.24023 13.5114C3.42658 14.3546 2.98075 15.4862 3.00064 16.6578C3.02052 17.8294 3.50449 18.9452 4.34629 19.7603C5.17092 20.5556 6.27188 21 7.4175 21C8.56311 21 9.66407 20.5556 10.4887 19.7603L12 18.2489" stroke="#181818" stroke-width="1.5" stroke-linecap="round" stroke-linejoin="round"/>
<path d="M8 3V6" stroke="#181818" stroke-width="1.5" stroke-linecap="round" stroke-linejoin="round"/>
<path d="M3 8H6" stroke="#181818" stroke-width="1.5" stroke-linecap="round" stroke-linejoin="round"/>
<path d="M16 18V21" stroke="#181818" stroke-width="1.5" stroke-linecap="round" stroke-linejoin="round"/>
<path d="M18 16H21" stroke="#181818" stroke-width="1.5" stroke-linecap="round" stroke-linejoin="round"/>
</svg>
