<svg width="24" height="24" viewBox="0 0 24 24" fill="none" xmlns="http://www.w3.org/2000/svg">
<path d="M18 15V16" stroke="#181818" stroke-width="1.5" stroke-linecap="round" stroke-linejoin="round"/>
<path d="M18 20V21" stroke="#181818" stroke-width="1.5" stroke-linecap="round" stroke-linejoin="round"/>
<path d="M15.4 16.5L16.3 17" stroke="#181818" stroke-width="1.5" stroke-linecap="round" stroke-linejoin="round"/>
<path d="M19.7 19L20.6 19.5" stroke="#181818" stroke-width="1.5" stroke-linecap="round" stroke-linejoin="round"/>
<path d="M15.4 19.5L16.3 19" stroke="#181818" stroke-width="1.5" stroke-linecap="round" stroke-linejoin="round"/>
<path d="M19.7 17L20.6 16.5" stroke="#181818" stroke-width="1.5" stroke-linecap="round" stroke-linejoin="round"/>
<path d="M19.4 16.6C20.2 17.4 20.2 18.6 19.4 19.4C18.6 20.2 17.4 20.2 16.6 19.4C15.8 18.6 15.8 17.4 16.6 16.6C17.4 15.8 18.6 15.8 19.4 16.6" stroke="#181818" stroke-width="1.5" stroke-linecap="round" stroke-linejoin="round"/>
<path d="M15 5.2C16.7 6.9 16.7 9.6 15 11.2C13.3 12.8 10.6 12.9 9 11.2C7.4 9.5 7.3 6.8 9 5.2C10.7 3.6 13.3 3.6 15 5.2" stroke="#181818" stroke-width="1.5" stroke-linecap="round" stroke-linejoin="round"/>
<path d="M4 20C4 17.5 6 15.5 8.5 15.5H11.1" stroke="#181818" stroke-width="1.5" stroke-linecap="round" stroke-linejoin="round"/>
</svg>
