<svg width="24" height="24" viewBox="0 0 24 24" fill="none" xmlns="http://www.w3.org/2000/svg">
<path d="M3 9V6.5C3 5.11929 4.11929 4 5.5 4H18.5C19.8807 4 21 5.11929 21 6.5V9.5" stroke="#181818" stroke-width="1.5" stroke-linecap="round" stroke-linejoin="round"/>
<path d="M21 14.5V17.5C21 18.8807 19.8807 20 18.5 20H15" stroke="#181818" stroke-width="1.5" stroke-linecap="round" stroke-linejoin="round"/>
<path fill-rule="evenodd" clip-rule="evenodd" d="M19.5 9.5H21C21.5523 9.5 22 9.94772 22 10.5V13.5C22 14.0523 21.5523 14.5 21 14.5H19.5C18.1193 14.5 17 13.3807 17 12V12C17 10.6193 18.1193 9.5 19.5 9.5V9.5Z" stroke="#181818" stroke-width="1.5" stroke-linecap="round" stroke-linejoin="round"/>
<path d="M5.5 19C3.567 19 2 17.433 2 15.5C2 13.567 3.567 12 5.5 12C7.433 12 9 13.567 9 15.5C9.00017 16.4283 8.63148 17.3186 7.97506 17.9751C7.31865 18.6315 6.42831 19.0002 5.5 19" stroke="#181818" stroke-width="1.5" stroke-linecap="round" stroke-linejoin="round"/>
<path d="M5.345 18.992C6.0726 20.5415 7.81592 21.3355 9.46248 20.8672C11.109 20.3989 12.1736 18.8063 11.9769 17.1058C11.7801 15.4053 10.38 14.0979 8.67 14.018" stroke="#181818" stroke-width="1.5" stroke-linecap="round" stroke-linejoin="round"/>
</svg>
